<?xml version="1.0" encoding="utf-8"?>
<!-- Generator: Adobe Illustrator 22.0.1, SVG Export Plug-In . SVG Version: 6.00 Build 0)  -->
<svg version="1.1" id="Layer_1" xmlns="http://www.w3.org/2000/svg" xmlns:xlink="http://www.w3.org/1999/xlink" x="0px" y="0px"
	 viewBox="0 0 304.6 280" style="enable-background:new 0 0 304.6 280;" xml:space="preserve">
<style type="text/css">
	.st0{fill:#2F912E;}
	.st1{fill:#00603B;}
</style>
<path class="st0" d="M281.2,123.5c-0.6-0.4-0.7-1.3-0.4-1.9c0.2-0.4,22.3-37.2,12.5-69.7c-4.9-16.3-17-29-36-37.8l-0.1,0
	c-1.3-0.6-12.7-5.4-27.7-5.4c-19.7,0-37.2,8.3-50.7,24.1c-0.3,0.3-0.6,0.5-1,0.5c-0.2,0-0.4-0.1-0.7-0.2c-0.9-0.5-4.3-2-8.5-2
	c-5.2,0-9.7,2.3-13,6.6c-6.4,8.2-3.4,16.1,1.1,20.4c0.5,0.5,0.6,1.2,0.2,1.8c-0.8,1.3-21.2,32-63.5,50.6c-0.2,0.1-0.4,0.1-0.5,0.1
	c-0.4,0-0.8-0.2-1.1-0.5c-0.6-0.7-2.8-3-6.3-4.6c-2-0.9-4.2-1.4-6.3-1.4c-2.7,0-5.4,0.8-8,2.2c-11.2,6.4-8.7,17.3-8.3,18.5
	c0.2,0.7-0.2,1.5-0.9,1.7C60.6,127,26.8,140,13.7,170c-7.3,17-6.6,36.2,2.2,57c6.9,17.2,24.7,37.7,70.5,37.7
	c14.3,0,25.1-2.2,25.2-2.2c0.1,0,0.2,0,0.3,0c0.4,0,0.8,0.2,1.1,0.6c0.6,0.7,6.1,7.1,15.3,7.1c2,0,4-0.3,6-0.9
	c10.4-3.1,12.3-13.2,11.8-18.1c-0.1-0.6,0.3-1.2,0.9-1.4c0.4-0.2,44.1-17.5,63.3-42.8c0.3-0.4,0.7-0.6,1.1-0.6
	c0.2,0,0.5,0.1,0.7,0.2l0.1,0.1c0.8,0.4,3.5,1.8,7.4,1.8c3.3,0,8.2-1,13.2-5.8c3.4-3.3,5.1-6.6,5.1-10c0-3.9-2.3-6.9-3.3-7.8
	c-0.3-0.3-0.4-0.6-0.4-1c0-0.4,0.2-0.7,0.5-1c0.7-0.7,17.8-16.4,26.5-30.7c0.2-0.4,0.7-0.7,1.2-0.7c0.1,0,0.2,0,0.4,0.1
	c0.6,0.2,2.2,0.5,4.3,0.5c3.9,0,11.2-1.2,16-9.5C288.3,133.7,285.3,126.7,281.2,123.5z"/>
<g>
	<g>
		<path class="st1" d="M42.9,263.5c-15.7-7-27-18.4-33.1-33.8C0.2,207.1-0.5,186,7.6,167.3c11.6-26.8,38-40.9,48.1-45.5
			c-0.2-6.5,2.1-15.6,12.2-21.4c10.7-6.2,20.5-2.1,26,2.3c30.8-14.4,49-35.6,55-43.5c-3.9-5.9-6.6-15.6,1.3-25.8
			c8-10.2,19-10.1,26.1-7.9C212.1-12.8,258.7,7.4,260.1,8c0,0,0,0,0,0c20.8,9.6,34.1,23.7,39.6,42c9,29.6-5.5,60.9-11.1,71.5
			c3.8,5,6.6,13.7,0.4,24.6c-6.4,11.1-16.9,13.3-23.9,12.8c-7,10.4-17,20.7-22.3,25.8c1.1,2.1,2,4.8,2.1,8c0,5.3-2.4,10.3-7.2,14.9
			c-8.7,8.4-18.3,8.5-24.5,6.7c-18,21.1-49.8,35.9-60.2,40.3c-0.6,7.3-4.6,17.5-16.6,21.1c-12.9,3.9-22.2-2.3-26.2-6
			c-6.3,1-22.1,3-39.6,1C60.2,269.5,50.9,267.1,42.9,263.5z M83.8,109.1c-2.7-1.2-6.4-1.7-10.6,0.7c-8.6,4.9-6.7,13.1-6.5,14
			c0.7,2.7-0.7,5.5-3.3,6.5c-0.3,0.1-33.6,12.7-46,41.4c-6.9,15.9-6.1,34.1,2.2,54c19,47.5,90.5,33.2,91.2,33.1c2-0.4,4,0.3,5.3,1.9
			c0.2,0.3,6.7,8,17.1,4.9c9.9-2.9,9.1-13.5,9-13.9c-0.2-2.4,1.2-4.6,3.4-5.5c0.4-0.2,43-17.1,61.6-41.5c1.7-2.2,4.7-2.8,7-1.3
			c0.7,0.4,8,4.2,15.9-3.4c2.6-2.5,3.9-4.9,3.9-7.1c0-2.8-2-4.9-2.1-4.9c-1.1-1-1.7-2.5-1.7-4c0-1.5,0.6-2.9,1.8-3.9
			c0.2-0.2,17.3-15.8,25.7-29.8c1.2-2.1,3.7-3,6-2.4c1,0.3,10.4,2.4,15.8-7.1c5-8.7,0.1-13.3-1-14.1c-2.1-1.7-2.8-4.8-1.3-7.1
			c0.2-0.3,21.4-35.6,12.1-66.5c-4.6-15.2-16-27-33.8-35.3c0,0,0,0-0.1,0c-2.6-1.1-43-18.3-73.7,17.6c-1.6,1.9-4.4,2.4-6.6,1.2
			c-1-0.5-10.1-4.8-16.6,3.5c-6.1,7.8-0.5,13.9,0.7,15.1c1.9,1.8,2.2,4.7,0.8,6.8c-0.9,1.3-21.8,33-65.2,52.1
			c-2.2,1-4.7,0.4-6.3-1.4C88.4,112.2,86.6,110.3,83.8,109.1z"/>
	</g>
	<g>
		<path class="st1" d="M64.2,211.7c-3.7-1.7-7.1-4.8-9.2-10.1c-4.7-12.3,3.6-20.5,10.3-23.1c2.8-1.1,5.9,0.3,6.9,3.1
			c1.1,2.8-0.3,5.8-3,6.9c-6,2.5-4.9,7.3-4.2,9.3c2.4,6.2,8.2,4.8,9.9,4.3c2.8-0.9,5.8,0.6,6.8,3.4c0.9,2.8-0.5,5.8-3.3,6.8
			C74.6,213.6,69.1,213.9,64.2,211.7z"/>
	</g>
	<g>
		<path class="st1" d="M186.9,174.8c-2.4-1.1-3.7-3.7-3-6.3c0.8-2.9,3.7-4.6,6.5-3.8c0.2,0,8.8,2.2,11.1-3.1c2.3-5.1-5.1-10-5.2-10
			c-2.5-1.6-3.2-4.9-1.7-7.4c1.6-2.5,4.9-3.3,7.4-1.7c5.3,3.3,14.2,12.5,9.3,23.5c-4.8,10.9-17.6,10.7-23.7,9.1
			C187.4,175.1,187.1,175,186.9,174.8z"/>
	</g>
	<g>
		<path class="st1" d="M207,73.7c-1.8-0.8-3.1-2.6-3.2-4.8c0-0.7,0-6.5,4.5-11.1c3.3-3.3,8-5,13.8-4.8c13.5,0.3,18.3,10.5,18.2,17.4
			c-0.1,3-2.5,5.3-5.5,5.3c-3,0-5.3-2.5-5.3-5.5c0-1.8-0.8-6.3-7.6-6.5c-1.9,0-4.5,0.2-6,1.7c-1.3,1.3-1.4,3.2-1.4,3.3
			c0.1,3-2.3,5.4-5.2,5.5C208.5,74.1,207.7,74,207,73.7z"/>
	</g>
</g>
</svg>
